<svg width="24" height="24" viewBox="0 0 24 24" fill="none" xmlns="http://www.w3.org/2000/svg">
  <path d="M21.95 11.5C21.93 8.63 20.68 6.12 18.73 4.29C16.77 2.46 14.21 1.35 11.5 1.05C10.81 1.02 10.25 1.57 10.25 2.25V3.5C10.25 3.87 10.45 4.21 10.76 4.42C11.28 4.76 11.09 5.58 10.48 5.62C8.71 5.95 7.09 6.85 5.85 8.14C4.17 9.91 3.25 12.29 3.25 14.8C3.25 15.4 14.38 15.4 15 15.4C17.51 15.4 19.89 14.48 21.66 12.79C21.86 12.6 22 12.35 22 12.08L21.95 11.5ZM12.28 10.5C11.8 10.5 11.4 10.1 11.4 9.62C11.4 9.14 11.8 8.75 12.28 8.75C12.76 8.75 13.15 9.14 13.15 9.62C13.15 10.1 12.76 10.5 12.28 10.5ZM9.28 8.75C8.8 8.75 8.4 8.35 8.4 7.88C8.4 7.4 8.8 7 9.28 7C9.76 7 10.15 7.4 10.15 7.88C10.15 8.35 9.76 8.75 9.28 8.75ZM13.75 13.38C13.27 13.38 12.88 12.98 12.88 12.5C12.88 12.02 13.27 11.63 13.75 11.63C14.23 11.63 14.63 12.02 14.63 12.5C14.63 12.98 14.23 13.38 13.75 13.38Z" fill="currentColor"/>
</svg>
