<svg width="32" height="32" viewBox="0 0 32 32" fill="none" xmlns="http://www.w3.org/2000/svg">
  <path d="M16 3C8.82 3 3 8.82 3 16C3 23.18 8.82 29 16 29C23.18 29 29 23.18 29 16C29 8.82 23.18 3 16 3ZM16 5C22.08 5 27 9.92 27 16C27 22.08 22.08 27 16 27C9.92 27 5 22.08 5 16C5 9.92 9.92 5 16 5Z" fill="currentColor"/>
  <path d="M16 7C10.48 7 6 11.48 6 17C6 19.5 7 21.8 8.6 23.4C9.5 22.6 10.7 22 12 22C14.2 22 16 20.2 16 18V12C16 11.4 16.4 11 17 11C17.6 11 18 11.4 18 12V14C18 16.2 19.8 18 22 18C22.6 18 23.2 17.9 23.7 17.7C23.9 17.5 24 17.3 24 17C24 11.48 19.52 7 16 7Z" fill="currentColor"/>
</svg>
